<?xml version="1.0" encoding="UTF-8"?>
<svg id="Layer_1" data-name="Layer 1" xmlns="http://www.w3.org/2000/svg" viewBox="0 0 50 50">
  <defs>
    <style>
      .cls-1 {
        fill: #333;
        stroke-width: px;
      }
    </style>
  </defs>
  <path class="cls-1" d="m20,.35v4.51c0,.09.04.18.1.25l1.3,1.3c.22.22.59.06.59-.25v-3.81c0-.19.16-.35.35-.35h12.74c.5,0,.91.41.91.91v10.02c0,.59.48,1.07,1.07,1.07h10.58c.19,0,.35.16.35.35v25.3c0,.19-.16.35-.35.35h-13.3c-.19,0-.35.16-.35.35v1.3c0,.19.16.35.35.35h15.3c.19,0,.35-.16.35-.35V12.74c0-.09-.04-.18-.1-.25L37.51.1c-.07-.07-.15-.1-.25-.1h-16.91c-.19,0-.35.16-.35.35Zm18.59,3.65l7.41,7.41c.22.22.06.59-.25.59h-7.41c-.19,0-.35-.16-.35-.35v-7.41c0-.31.37-.47.59-.25ZM0,8.07v40.95c0,.54.44.97.97.97h29.95c.59,0,1.07-.48,1.07-1.07v-29.33l-.28-.31-12-12-.31-.28H1.07c-.59,0-1.07.48-1.07,1.07Zm3.01.93h13.92c.59,0,1.07.48,1.07,1.07v9.89c0,.58.47,1.04,1.04,1.04h10.61c.19,0,.35.16.35.35v26.3c0,.19-.16.35-.35.35H2.35c-.19,0-.35-.16-.35-.35V10.01c0-.56.45-1.01,1.01-1.01Zm18.04,2.49l6.27,6.27c.46.46.13,1.25-.52,1.25h-5.78c-.56,0-1.02-.46-1.02-1.02v-6.06c0-.55.66-.82,1.05-.43Zm.61,11.86c-1.28,0-2.56.5-3.53,1.47l-2.12,2.12c-1.7,1.7-1.9,4.34-.62,6.28l-.16.16c-.83-.55-1.79-.84-2.75-.84-1.28,0-2.56.5-3.53,1.47l-1.94,1.94c-1.86,1.86-2.18,4.88-.5,6.9,1.9,2.29,5.33,2.4,7.38.35l2.12-2.12c1.7-1.7,1.9-4.34.62-6.28l.16-.16c1.94,1.28,4.58,1.08,6.28-.62l1.93-1.93c2.01-2.01,2.15-5.44.06-7.38-.95-.89-2.18-1.34-3.4-1.34Zm0,2c.68,0,1.36.23,1.92.69,1.39,1.15,1.32,3.32.04,4.6l-1.96,1.96c-.78.78-1.87,1.03-2.86.76-.26-.07-.35-.4-.16-.59l2.3-2.3c.31-.3.4-.76.22-1.15-.19-.39-.6-.62-1.03-.57-.23.03-.44.14-.59.31l-2.3,2.3c-.19.19-.52.1-.59-.16-.26-.99-.02-2.08.76-2.86l2.12-2.12c.59-.59,1.36-.88,2.12-.88Zm-9.19,9.19c.44,0,.87.12,1.28.31l-1.28,1.28c-.3.24-.43.63-.35,1,.09.37.38.66.75.75.38.09.76-.05,1-.35l1.28-1.28c.54,1.12.37,2.48-.56,3.41l-1.99,1.99c-1.17,1.17-3.1,1.34-4.3.21s-1.29-3.12-.08-4.33l2.12-2.12c.59-.59,1.36-.88,2.12-.88Z"/>
</svg>